<mxfile host="app.diagrams.net" modified="2023-08-04T20:38:36.641Z" agent="Mozilla/5.0 (Windows NT 10.0; Win64; x64) AppleWebKit/537.36 (KHTML, like Gecko) Chrome/115.0.0.0 Safari/537.36 Edg/115.0.1901.188" etag="uQgRiW5M4S0QhHdn5j59" version="21.6.5" type="device">
  <diagram name="Page-1" id="6vmzrLI1gfVsMIcV5TNJ">
    <mxGraphModel dx="2767" dy="3112" grid="1" gridSize="10" guides="1" tooltips="1" connect="1" arrows="1" fold="1" page="1" pageScale="1" pageWidth="850" pageHeight="1100" math="0" shadow="0">
      <root>
        <mxCell id="0" />
        <mxCell id="1" parent="0" />
        <mxCell id="mvMGPAbySClWrUy9KK7t-10" value="" style="edgeStyle=orthogonalEdgeStyle;rounded=0;orthogonalLoop=1;jettySize=auto;html=1;" edge="1" parent="1" source="mvMGPAbySClWrUy9KK7t-1" target="mvMGPAbySClWrUy9KK7t-9">
          <mxGeometry relative="1" as="geometry" />
        </mxCell>
        <mxCell id="mvMGPAbySClWrUy9KK7t-1" value="Create Team" style="rounded=0;whiteSpace=wrap;html=1;" vertex="1" parent="1">
          <mxGeometry x="295.88" y="40" width="120" height="60" as="geometry" />
        </mxCell>
        <mxCell id="mvMGPAbySClWrUy9KK7t-17" value="" style="edgeStyle=orthogonalEdgeStyle;rounded=0;orthogonalLoop=1;jettySize=auto;html=1;" edge="1" parent="1" source="mvMGPAbySClWrUy9KK7t-2" target="mvMGPAbySClWrUy9KK7t-5">
          <mxGeometry relative="1" as="geometry" />
        </mxCell>
        <mxCell id="mvMGPAbySClWrUy9KK7t-2" value="" style="outlineConnect=0;dashed=0;verticalLabelPosition=bottom;verticalAlign=top;align=center;html=1;shape=mxgraph.aws3.api_gateway;fillColor=#D9A741;gradientColor=none;" vertex="1" parent="1">
          <mxGeometry x="321.76" y="320" width="68.25" height="70" as="geometry" />
        </mxCell>
        <mxCell id="mvMGPAbySClWrUy9KK7t-3" value="" style="sketch=0;points=[[0,0,0],[0.25,0,0],[0.5,0,0],[0.75,0,0],[1,0,0],[0,1,0],[0.25,1,0],[0.5,1,0],[0.75,1,0],[1,1,0],[0,0.25,0],[0,0.5,0],[0,0.75,0],[1,0.25,0],[1,0.5,0],[1,0.75,0]];outlineConnect=0;fontColor=#232F3E;gradientColor=#4D72F3;gradientDirection=north;fillColor=#3334B9;strokeColor=#ffffff;dashed=0;verticalLabelPosition=bottom;verticalAlign=top;align=center;html=1;fontSize=12;fontStyle=0;aspect=fixed;shape=mxgraph.aws4.resourceIcon;resIcon=mxgraph.aws4.dynamodb;" vertex="1" parent="1">
          <mxGeometry x="250" y="580" width="70" height="70" as="geometry" />
        </mxCell>
        <mxCell id="mvMGPAbySClWrUy9KK7t-18" style="edgeStyle=orthogonalEdgeStyle;rounded=0;orthogonalLoop=1;jettySize=auto;html=1;entryX=0.5;entryY=0;entryDx=0;entryDy=0;entryPerimeter=0;" edge="1" parent="1" source="mvMGPAbySClWrUy9KK7t-5" target="mvMGPAbySClWrUy9KK7t-3">
          <mxGeometry relative="1" as="geometry" />
        </mxCell>
        <mxCell id="mvMGPAbySClWrUy9KK7t-19" style="edgeStyle=orthogonalEdgeStyle;rounded=0;orthogonalLoop=1;jettySize=auto;html=1;" edge="1" parent="1" source="mvMGPAbySClWrUy9KK7t-5" target="mvMGPAbySClWrUy9KK7t-7">
          <mxGeometry relative="1" as="geometry" />
        </mxCell>
        <mxCell id="mvMGPAbySClWrUy9KK7t-5" value="" style="outlineConnect=0;dashed=0;verticalLabelPosition=bottom;verticalAlign=top;align=center;html=1;shape=mxgraph.aws3.lambda;fillColor=#F58534;gradientColor=none;" vertex="1" parent="1">
          <mxGeometry x="320.88" y="445" width="70" height="80" as="geometry" />
        </mxCell>
        <mxCell id="mvMGPAbySClWrUy9KK7t-20" value="" style="edgeStyle=orthogonalEdgeStyle;rounded=0;orthogonalLoop=1;jettySize=auto;html=1;" edge="1" parent="1" source="mvMGPAbySClWrUy9KK7t-7" target="mvMGPAbySClWrUy9KK7t-8">
          <mxGeometry relative="1" as="geometry" />
        </mxCell>
        <mxCell id="mvMGPAbySClWrUy9KK7t-7" value="Amazon SNS" style="sketch=0;outlineConnect=0;fontColor=#232F3E;gradientColor=none;strokeColor=#ffffff;fillColor=#232F3E;dashed=0;verticalLabelPosition=middle;verticalAlign=bottom;align=center;html=1;whiteSpace=wrap;fontSize=10;fontStyle=1;spacing=3;shape=mxgraph.aws4.productIcon;prIcon=mxgraph.aws4.sns;" vertex="1" parent="1">
          <mxGeometry x="415.88" y="567.5" width="70" height="95" as="geometry" />
        </mxCell>
        <mxCell id="mvMGPAbySClWrUy9KK7t-8" value="" style="outlineConnect=0;dashed=0;verticalLabelPosition=bottom;verticalAlign=top;align=center;html=1;shape=mxgraph.aws3.email;fillColor=#D9A741;gradientColor=none;" vertex="1" parent="1">
          <mxGeometry x="410.38" y="700" width="81" height="61.5" as="geometry" />
        </mxCell>
        <mxCell id="mvMGPAbySClWrUy9KK7t-12" value="" style="edgeStyle=orthogonalEdgeStyle;rounded=0;orthogonalLoop=1;jettySize=auto;html=1;" edge="1" parent="1" source="mvMGPAbySClWrUy9KK7t-9" target="mvMGPAbySClWrUy9KK7t-11">
          <mxGeometry relative="1" as="geometry" />
        </mxCell>
        <mxCell id="mvMGPAbySClWrUy9KK7t-9" value="OpenAI" style="rounded=0;whiteSpace=wrap;html=1;" vertex="1" parent="1">
          <mxGeometry x="295.88" y="130" width="120" height="60" as="geometry" />
        </mxCell>
        <mxCell id="mvMGPAbySClWrUy9KK7t-16" value="" style="edgeStyle=orthogonalEdgeStyle;rounded=0;orthogonalLoop=1;jettySize=auto;html=1;" edge="1" parent="1" source="mvMGPAbySClWrUy9KK7t-11" target="mvMGPAbySClWrUy9KK7t-2">
          <mxGeometry relative="1" as="geometry" />
        </mxCell>
        <mxCell id="mvMGPAbySClWrUy9KK7t-11" value="Select users to invite" style="rounded=0;whiteSpace=wrap;html=1;" vertex="1" parent="1">
          <mxGeometry x="295.88" y="220" width="120" height="60" as="geometry" />
        </mxCell>
        <mxCell id="mvMGPAbySClWrUy9KK7t-35" style="edgeStyle=orthogonalEdgeStyle;rounded=0;orthogonalLoop=1;jettySize=auto;html=1;entryX=0.5;entryY=0;entryDx=0;entryDy=0;entryPerimeter=0;" edge="1" parent="1" source="mvMGPAbySClWrUy9KK7t-22" target="mvMGPAbySClWrUy9KK7t-26">
          <mxGeometry relative="1" as="geometry" />
        </mxCell>
        <mxCell id="mvMGPAbySClWrUy9KK7t-36" value="Fetching team name from open ai api" style="edgeLabel;html=1;align=center;verticalAlign=middle;resizable=0;points=[];" vertex="1" connectable="0" parent="mvMGPAbySClWrUy9KK7t-35">
          <mxGeometry x="-0.2248" y="-10" relative="1" as="geometry">
            <mxPoint x="-16" as="offset" />
          </mxGeometry>
        </mxCell>
        <mxCell id="mvMGPAbySClWrUy9KK7t-38" style="edgeStyle=orthogonalEdgeStyle;rounded=0;orthogonalLoop=1;jettySize=auto;html=1;entryX=0.5;entryY=0;entryDx=0;entryDy=0;entryPerimeter=0;" edge="1" parent="1" source="mvMGPAbySClWrUy9KK7t-22" target="mvMGPAbySClWrUy9KK7t-37">
          <mxGeometry relative="1" as="geometry" />
        </mxCell>
        <mxCell id="mvMGPAbySClWrUy9KK7t-43" style="edgeStyle=orthogonalEdgeStyle;rounded=0;orthogonalLoop=1;jettySize=auto;html=1;entryX=0.5;entryY=0;entryDx=0;entryDy=0;entryPerimeter=0;" edge="1" parent="1" source="mvMGPAbySClWrUy9KK7t-22" target="mvMGPAbySClWrUy9KK7t-42">
          <mxGeometry relative="1" as="geometry" />
        </mxCell>
        <mxCell id="mvMGPAbySClWrUy9KK7t-63" style="edgeStyle=orthogonalEdgeStyle;rounded=0;orthogonalLoop=1;jettySize=auto;html=1;entryX=0.5;entryY=0;entryDx=0;entryDy=0;entryPerimeter=0;" edge="1" parent="1" source="mvMGPAbySClWrUy9KK7t-22" target="mvMGPAbySClWrUy9KK7t-62">
          <mxGeometry relative="1" as="geometry">
            <Array as="points">
              <mxPoint x="396" y="-510" />
              <mxPoint x="608" y="-510" />
            </Array>
          </mxGeometry>
        </mxCell>
        <mxCell id="mvMGPAbySClWrUy9KK7t-70" style="edgeStyle=orthogonalEdgeStyle;rounded=0;orthogonalLoop=1;jettySize=auto;html=1;entryX=0.5;entryY=0;entryDx=0;entryDy=0;entryPerimeter=0;" edge="1" parent="1" source="mvMGPAbySClWrUy9KK7t-22" target="mvMGPAbySClWrUy9KK7t-69">
          <mxGeometry relative="1" as="geometry">
            <Array as="points">
              <mxPoint x="396" y="-610" />
              <mxPoint x="280" y="-610" />
              <mxPoint x="280" y="-460" />
              <mxPoint x="168" y="-460" />
            </Array>
          </mxGeometry>
        </mxCell>
        <mxCell id="mvMGPAbySClWrUy9KK7t-79" style="edgeStyle=orthogonalEdgeStyle;rounded=0;orthogonalLoop=1;jettySize=auto;html=1;entryX=0.5;entryY=0;entryDx=0;entryDy=0;entryPerimeter=0;" edge="1" parent="1" source="mvMGPAbySClWrUy9KK7t-22" target="mvMGPAbySClWrUy9KK7t-78">
          <mxGeometry relative="1" as="geometry" />
        </mxCell>
        <mxCell id="mvMGPAbySClWrUy9KK7t-98" style="edgeStyle=orthogonalEdgeStyle;rounded=0;orthogonalLoop=1;jettySize=auto;html=1;" edge="1" parent="1" source="mvMGPAbySClWrUy9KK7t-22" target="mvMGPAbySClWrUy9KK7t-97">
          <mxGeometry relative="1" as="geometry" />
        </mxCell>
        <mxCell id="mvMGPAbySClWrUy9KK7t-99" style="edgeStyle=orthogonalEdgeStyle;rounded=0;orthogonalLoop=1;jettySize=auto;html=1;" edge="1" parent="1" source="mvMGPAbySClWrUy9KK7t-22" target="mvMGPAbySClWrUy9KK7t-96">
          <mxGeometry relative="1" as="geometry" />
        </mxCell>
        <mxCell id="mvMGPAbySClWrUy9KK7t-22" value="" style="outlineConnect=0;dashed=0;verticalLabelPosition=bottom;verticalAlign=top;align=center;html=1;shape=mxgraph.aws3.api_gateway;fillColor=#D9A741;gradientColor=none;" vertex="1" parent="1">
          <mxGeometry x="357" y="-842" width="68.25" height="70" as="geometry" />
        </mxCell>
        <mxCell id="mvMGPAbySClWrUy9KK7t-23" value="" style="sketch=0;points=[[0,0,0],[0.25,0,0],[0.5,0,0],[0.75,0,0],[1,0,0],[0,1,0],[0.25,1,0],[0.5,1,0],[0.75,1,0],[1,1,0],[0,0.25,0],[0,0.5,0],[0,0.75,0],[1,0.25,0],[1,0.5,0],[1,0.75,0]];outlineConnect=0;fontColor=#232F3E;gradientColor=#4D72F3;gradientDirection=north;fillColor=#3334B9;strokeColor=#ffffff;dashed=0;verticalLabelPosition=bottom;verticalAlign=top;align=center;html=1;fontSize=12;fontStyle=0;aspect=fixed;shape=mxgraph.aws4.resourceIcon;resIcon=mxgraph.aws4.dynamodb;" vertex="1" parent="1">
          <mxGeometry x="60" y="-485" width="70" height="70" as="geometry" />
        </mxCell>
        <mxCell id="mvMGPAbySClWrUy9KK7t-24" style="edgeStyle=orthogonalEdgeStyle;rounded=0;orthogonalLoop=1;jettySize=auto;html=1;entryX=0.5;entryY=0;entryDx=0;entryDy=0;entryPerimeter=0;" edge="1" parent="1" source="mvMGPAbySClWrUy9KK7t-26" target="mvMGPAbySClWrUy9KK7t-23">
          <mxGeometry relative="1" as="geometry" />
        </mxCell>
        <mxCell id="mvMGPAbySClWrUy9KK7t-26" value="" style="outlineConnect=0;dashed=0;verticalLabelPosition=bottom;verticalAlign=top;align=center;html=1;shape=mxgraph.aws3.lambda;fillColor=#F58534;gradientColor=none;" vertex="1" parent="1">
          <mxGeometry x="170" y="-590" width="70" height="80" as="geometry" />
        </mxCell>
        <mxCell id="mvMGPAbySClWrUy9KK7t-34" value="" style="edgeStyle=orthogonalEdgeStyle;rounded=0;orthogonalLoop=1;jettySize=auto;html=1;" edge="1" parent="1" source="mvMGPAbySClWrUy9KK7t-30" target="mvMGPAbySClWrUy9KK7t-22">
          <mxGeometry relative="1" as="geometry" />
        </mxCell>
        <mxCell id="mvMGPAbySClWrUy9KK7t-82" style="edgeStyle=orthogonalEdgeStyle;rounded=0;orthogonalLoop=1;jettySize=auto;html=1;entryX=0.5;entryY=0;entryDx=0;entryDy=0;entryPerimeter=0;" edge="1" parent="1" source="mvMGPAbySClWrUy9KK7t-30" target="mvMGPAbySClWrUy9KK7t-81">
          <mxGeometry relative="1" as="geometry" />
        </mxCell>
        <mxCell id="mvMGPAbySClWrUy9KK7t-30" value="" style="html=1;verticalLabelPosition=bottom;align=center;labelBackgroundColor=#ffffff;verticalAlign=top;strokeWidth=2;strokeColor=#0080F0;shadow=0;dashed=0;shape=mxgraph.ios7.icons.user;" vertex="1" parent="1">
          <mxGeometry x="345.25" y="-1160" width="80" height="70" as="geometry" />
        </mxCell>
        <mxCell id="mvMGPAbySClWrUy9KK7t-61" value="" style="edgeStyle=orthogonalEdgeStyle;rounded=0;orthogonalLoop=1;jettySize=auto;html=1;" edge="1" parent="1" source="mvMGPAbySClWrUy9KK7t-37" target="mvMGPAbySClWrUy9KK7t-59">
          <mxGeometry relative="1" as="geometry" />
        </mxCell>
        <mxCell id="mvMGPAbySClWrUy9KK7t-37" value="" style="outlineConnect=0;dashed=0;verticalLabelPosition=bottom;verticalAlign=top;align=center;html=1;shape=mxgraph.aws3.lambda;fillColor=#F58534;gradientColor=none;" vertex="1" parent="1">
          <mxGeometry x="310" y="-490" width="70" height="80" as="geometry" />
        </mxCell>
        <mxCell id="mvMGPAbySClWrUy9KK7t-39" value="fetching confirmed users to add to the team" style="text;html=1;align=center;verticalAlign=middle;resizable=0;points=[];autosize=1;strokeColor=none;fillColor=none;rotation=0;" vertex="1" parent="1">
          <mxGeometry x="220" y="-410" width="250" height="30" as="geometry" />
        </mxCell>
        <mxCell id="mvMGPAbySClWrUy9KK7t-46" style="edgeStyle=orthogonalEdgeStyle;rounded=0;orthogonalLoop=1;jettySize=auto;html=1;" edge="1" parent="1" source="mvMGPAbySClWrUy9KK7t-42">
          <mxGeometry relative="1" as="geometry">
            <mxPoint x="760" y="-700" as="targetPoint" />
          </mxGeometry>
        </mxCell>
        <mxCell id="mvMGPAbySClWrUy9KK7t-53" value="" style="edgeStyle=orthogonalEdgeStyle;rounded=0;orthogonalLoop=1;jettySize=auto;html=1;" edge="1" parent="1" source="mvMGPAbySClWrUy9KK7t-42" target="mvMGPAbySClWrUy9KK7t-52">
          <mxGeometry relative="1" as="geometry" />
        </mxCell>
        <mxCell id="mvMGPAbySClWrUy9KK7t-42" value="" style="outlineConnect=0;dashed=0;verticalLabelPosition=bottom;verticalAlign=top;align=center;html=1;shape=mxgraph.aws3.lambda;fillColor=#F58534;gradientColor=none;" vertex="1" parent="1">
          <mxGeometry x="530" y="-810" width="70" height="80" as="geometry" />
        </mxCell>
        <mxCell id="mvMGPAbySClWrUy9KK7t-44" value="adding people to the team" style="text;html=1;align=center;verticalAlign=middle;resizable=0;points=[];autosize=1;strokeColor=none;fillColor=none;" vertex="1" parent="1">
          <mxGeometry x="450" y="-872" width="160" height="30" as="geometry" />
        </mxCell>
        <mxCell id="mvMGPAbySClWrUy9KK7t-49" value="" style="edgeStyle=orthogonalEdgeStyle;rounded=0;orthogonalLoop=1;jettySize=auto;html=1;" edge="1" parent="1" source="mvMGPAbySClWrUy9KK7t-47" target="mvMGPAbySClWrUy9KK7t-48">
          <mxGeometry relative="1" as="geometry" />
        </mxCell>
        <mxCell id="mvMGPAbySClWrUy9KK7t-47" value="Amazon SNS" style="sketch=0;outlineConnect=0;fontColor=#232F3E;gradientColor=none;strokeColor=#ffffff;fillColor=#232F3E;dashed=0;verticalLabelPosition=middle;verticalAlign=bottom;align=center;html=1;whiteSpace=wrap;fontSize=10;fontStyle=1;spacing=3;shape=mxgraph.aws4.productIcon;prIcon=mxgraph.aws4.sns;" vertex="1" parent="1">
          <mxGeometry x="730" y="-700" width="80" height="100" as="geometry" />
        </mxCell>
        <mxCell id="mvMGPAbySClWrUy9KK7t-48" value="" style="outlineConnect=0;dashed=0;verticalLabelPosition=bottom;verticalAlign=top;align=center;html=1;shape=mxgraph.aws3.email;fillColor=#D9A741;gradientColor=none;" vertex="1" parent="1">
          <mxGeometry x="730" y="-510" width="81" height="61.5" as="geometry" />
        </mxCell>
        <mxCell id="mvMGPAbySClWrUy9KK7t-50" value="sending request to sns to publish&lt;br&gt;" style="text;html=1;align=center;verticalAlign=middle;resizable=0;points=[];autosize=1;strokeColor=none;fillColor=none;" vertex="1" parent="1">
          <mxGeometry x="600" y="-802" width="200" height="30" as="geometry" />
        </mxCell>
        <mxCell id="mvMGPAbySClWrUy9KK7t-51" value="sending invite email to user" style="text;html=1;align=center;verticalAlign=middle;resizable=0;points=[];autosize=1;strokeColor=none;fillColor=none;" vertex="1" parent="1">
          <mxGeometry x="700" y="-448.5" width="170" height="30" as="geometry" />
        </mxCell>
        <mxCell id="mvMGPAbySClWrUy9KK7t-52" value="" style="sketch=0;points=[[0,0,0],[0.25,0,0],[0.5,0,0],[0.75,0,0],[1,0,0],[0,1,0],[0.25,1,0],[0.5,1,0],[0.75,1,0],[1,1,0],[0,0.25,0],[0,0.5,0],[0,0.75,0],[1,0.25,0],[1,0.5,0],[1,0.75,0]];outlineConnect=0;fontColor=#232F3E;gradientColor=#4D72F3;gradientDirection=north;fillColor=#3334B9;strokeColor=#ffffff;dashed=0;verticalLabelPosition=bottom;verticalAlign=top;align=center;html=1;fontSize=12;fontStyle=0;aspect=fixed;shape=mxgraph.aws4.resourceIcon;resIcon=mxgraph.aws4.dynamodb;" vertex="1" parent="1">
          <mxGeometry x="540" y="-640" width="70" height="70" as="geometry" />
        </mxCell>
        <mxCell id="mvMGPAbySClWrUy9KK7t-54" value="adding new users to the team into DB" style="text;html=1;align=center;verticalAlign=middle;resizable=0;points=[];autosize=1;strokeColor=none;fillColor=none;" vertex="1" parent="1">
          <mxGeometry x="480" y="-570" width="220" height="30" as="geometry" />
        </mxCell>
        <mxCell id="mvMGPAbySClWrUy9KK7t-59" value="" style="sketch=0;html=1;dashed=0;whitespace=wrap;fillColor=#2875E2;strokeColor=#ffffff;points=[[0.005,0.63,0],[0.1,0.2,0],[0.9,0.2,0],[0.5,0,0],[0.995,0.63,0],[0.72,0.99,0],[0.5,1,0],[0.28,0.99,0]];verticalLabelPosition=bottom;align=center;verticalAlign=top;shape=mxgraph.kubernetes.icon;prIcon=api" vertex="1" parent="1">
          <mxGeometry x="291.77" y="-340" width="98.23" height="70" as="geometry" />
        </mxCell>
        <mxCell id="mvMGPAbySClWrUy9KK7t-68" value="" style="edgeStyle=orthogonalEdgeStyle;rounded=0;orthogonalLoop=1;jettySize=auto;html=1;" edge="1" parent="1" source="mvMGPAbySClWrUy9KK7t-62" target="mvMGPAbySClWrUy9KK7t-65">
          <mxGeometry relative="1" as="geometry" />
        </mxCell>
        <mxCell id="mvMGPAbySClWrUy9KK7t-62" value="" style="outlineConnect=0;dashed=0;verticalLabelPosition=bottom;verticalAlign=top;align=center;html=1;shape=mxgraph.aws3.lambda;fillColor=#F58534;gradientColor=none;" vertex="1" parent="1">
          <mxGeometry x="570" y="-390" width="76.5" height="93" as="geometry" />
        </mxCell>
        <mxCell id="mvMGPAbySClWrUy9KK7t-64" value="displaying my create teams" style="text;html=1;align=center;verticalAlign=middle;resizable=0;points=[];autosize=1;strokeColor=none;fillColor=none;" vertex="1" parent="1">
          <mxGeometry x="445" y="-502" width="170" height="30" as="geometry" />
        </mxCell>
        <mxCell id="mvMGPAbySClWrUy9KK7t-65" value="" style="sketch=0;points=[[0,0,0],[0.25,0,0],[0.5,0,0],[0.75,0,0],[1,0,0],[0,1,0],[0.25,1,0],[0.5,1,0],[0.75,1,0],[1,1,0],[0,0.25,0],[0,0.5,0],[0,0.75,0],[1,0.25,0],[1,0.5,0],[1,0.75,0]];outlineConnect=0;fontColor=#232F3E;gradientColor=#4D72F3;gradientDirection=north;fillColor=#3334B9;strokeColor=#ffffff;dashed=0;verticalLabelPosition=bottom;verticalAlign=top;align=center;html=1;fontSize=12;fontStyle=0;aspect=fixed;shape=mxgraph.aws4.resourceIcon;resIcon=mxgraph.aws4.dynamodb;" vertex="1" parent="1">
          <mxGeometry x="579.75" y="-237" width="57" height="57" as="geometry" />
        </mxCell>
        <mxCell id="mvMGPAbySClWrUy9KK7t-74" style="edgeStyle=orthogonalEdgeStyle;rounded=0;orthogonalLoop=1;jettySize=auto;html=1;" edge="1" parent="1" source="mvMGPAbySClWrUy9KK7t-69" target="mvMGPAbySClWrUy9KK7t-73">
          <mxGeometry relative="1" as="geometry" />
        </mxCell>
        <mxCell id="mvMGPAbySClWrUy9KK7t-69" value="" style="outlineConnect=0;dashed=0;verticalLabelPosition=bottom;verticalAlign=top;align=center;html=1;shape=mxgraph.aws3.lambda;fillColor=#F58534;gradientColor=none;" vertex="1" parent="1">
          <mxGeometry x="130" y="-340" width="76.5" height="93" as="geometry" />
        </mxCell>
        <mxCell id="mvMGPAbySClWrUy9KK7t-71" value="displaying my participated teams" style="text;html=1;align=center;verticalAlign=middle;resizable=0;points=[];autosize=1;strokeColor=none;fillColor=none;" vertex="1" parent="1">
          <mxGeometry x="90" y="-370" width="200" height="30" as="geometry" />
        </mxCell>
        <mxCell id="mvMGPAbySClWrUy9KK7t-73" value="" style="sketch=0;points=[[0,0,0],[0.25,0,0],[0.5,0,0],[0.75,0,0],[1,0,0],[0,1,0],[0.25,1,0],[0.5,1,0],[0.75,1,0],[1,1,0],[0,0.25,0],[0,0.5,0],[0,0.75,0],[1,0.25,0],[1,0.5,0],[1,0.75,0]];outlineConnect=0;fontColor=#232F3E;gradientColor=#4D72F3;gradientDirection=north;fillColor=#3334B9;strokeColor=#ffffff;dashed=0;verticalLabelPosition=bottom;verticalAlign=top;align=center;html=1;fontSize=12;fontStyle=0;aspect=fixed;shape=mxgraph.aws4.resourceIcon;resIcon=mxgraph.aws4.dynamodb;" vertex="1" parent="1">
          <mxGeometry x="133.25" y="-190" width="70" height="70" as="geometry" />
        </mxCell>
        <mxCell id="mvMGPAbySClWrUy9KK7t-78" value="" style="sketch=0;html=1;dashed=0;whitespace=wrap;fillColor=#2875E2;strokeColor=#ffffff;points=[[0.005,0.63,0],[0.1,0.2,0],[0.9,0.2,0],[0.5,0,0],[0.995,0.63,0],[0.72,0.99,0],[0.5,1,0],[0.28,0.99,0]];verticalLabelPosition=bottom;align=center;verticalAlign=top;shape=mxgraph.kubernetes.icon;prIcon=api" vertex="1" parent="1">
          <mxGeometry x="-60" y="-750" width="98.23" height="70" as="geometry" />
        </mxCell>
        <mxCell id="mvMGPAbySClWrUy9KK7t-80" value="fetching team scores to display on leaderboard" style="text;html=1;align=center;verticalAlign=middle;resizable=0;points=[];autosize=1;strokeColor=none;fillColor=none;" vertex="1" parent="1">
          <mxGeometry x="-120" y="-680" width="270" height="30" as="geometry" />
        </mxCell>
        <mxCell id="mvMGPAbySClWrUy9KK7t-84" style="edgeStyle=orthogonalEdgeStyle;rounded=0;orthogonalLoop=1;jettySize=auto;html=1;entryX=0;entryY=0.5;entryDx=0;entryDy=0;" edge="1" parent="1" source="mvMGPAbySClWrUy9KK7t-81" target="mvMGPAbySClWrUy9KK7t-83">
          <mxGeometry relative="1" as="geometry" />
        </mxCell>
        <mxCell id="mvMGPAbySClWrUy9KK7t-81" value="" style="sketch=0;points=[[0,0,0],[0.25,0,0],[0.5,0,0],[0.75,0,0],[1,0,0],[0,1,0],[0.25,1,0],[0.5,1,0],[0.75,1,0],[1,1,0],[0,0.25,0],[0,0.5,0],[0,0.75,0],[1,0.25,0],[1,0.5,0],[1,0.75,0]];points=[[0,0,0],[0.25,0,0],[0.5,0,0],[0.75,0,0],[1,0,0],[0,1,0],[0.25,1,0],[0.5,1,0],[0.75,1,0],[1,1,0],[0,0.25,0],[0,0.5,0],[0,0.75,0],[1,0.25,0],[1,0.5,0],[1,0.75,0]];outlineConnect=0;fontColor=#232F3E;gradientColor=#F34482;gradientDirection=north;fillColor=#BC1356;strokeColor=#ffffff;dashed=0;verticalLabelPosition=bottom;verticalAlign=top;align=center;html=1;fontSize=12;fontStyle=0;aspect=fixed;shape=mxgraph.aws4.resourceIcon;resIcon=mxgraph.aws4.chatbot;" vertex="1" parent="1">
          <mxGeometry x="610" y="-1070" width="78" height="78" as="geometry" />
        </mxCell>
        <mxCell id="mvMGPAbySClWrUy9KK7t-87" style="edgeStyle=orthogonalEdgeStyle;rounded=0;orthogonalLoop=1;jettySize=auto;html=1;entryX=0.5;entryY=0;entryDx=0;entryDy=0;entryPerimeter=0;" edge="1" parent="1" source="mvMGPAbySClWrUy9KK7t-83" target="mvMGPAbySClWrUy9KK7t-86">
          <mxGeometry relative="1" as="geometry" />
        </mxCell>
        <mxCell id="mvMGPAbySClWrUy9KK7t-83" value="Lex Intent" style="rounded=0;whiteSpace=wrap;html=1;" vertex="1" parent="1">
          <mxGeometry x="780" y="-1061" width="120" height="60" as="geometry" />
        </mxCell>
        <mxCell id="mvMGPAbySClWrUy9KK7t-91" style="edgeStyle=orthogonalEdgeStyle;rounded=0;orthogonalLoop=1;jettySize=auto;html=1;entryX=0.5;entryY=0;entryDx=0;entryDy=0;entryPerimeter=0;" edge="1" parent="1" source="mvMGPAbySClWrUy9KK7t-86" target="mvMGPAbySClWrUy9KK7t-89">
          <mxGeometry relative="1" as="geometry" />
        </mxCell>
        <mxCell id="mvMGPAbySClWrUy9KK7t-92" style="edgeStyle=orthogonalEdgeStyle;rounded=0;orthogonalLoop=1;jettySize=auto;html=1;entryX=0.5;entryY=0;entryDx=0;entryDy=0;entryPerimeter=0;" edge="1" parent="1" source="mvMGPAbySClWrUy9KK7t-86" target="mvMGPAbySClWrUy9KK7t-90">
          <mxGeometry relative="1" as="geometry" />
        </mxCell>
        <mxCell id="mvMGPAbySClWrUy9KK7t-86" value="" style="outlineConnect=0;dashed=0;verticalLabelPosition=bottom;verticalAlign=top;align=center;html=1;shape=mxgraph.aws3.lambda;fillColor=#F58534;gradientColor=none;" vertex="1" parent="1">
          <mxGeometry x="960" y="-970" width="76.5" height="93" as="geometry" />
        </mxCell>
        <mxCell id="mvMGPAbySClWrUy9KK7t-89" value="" style="sketch=0;html=1;dashed=0;whitespace=wrap;fillColor=#2875E2;strokeColor=#ffffff;points=[[0.005,0.63,0],[0.1,0.2,0],[0.9,0.2,0],[0.5,0,0],[0.995,0.63,0],[0.72,0.99,0],[0.5,1,0],[0.28,0.99,0]];verticalLabelPosition=bottom;align=center;verticalAlign=top;shape=mxgraph.kubernetes.icon;prIcon=api" vertex="1" parent="1">
          <mxGeometry x="1036.5" y="-810" width="120" height="91" as="geometry" />
        </mxCell>
        <mxCell id="mvMGPAbySClWrUy9KK7t-90" value="" style="sketch=0;html=1;dashed=0;whitespace=wrap;fillColor=#2875E2;strokeColor=#ffffff;points=[[0.005,0.63,0],[0.1,0.2,0],[0.9,0.2,0],[0.5,0,0],[0.995,0.63,0],[0.72,0.99,0],[0.5,1,0],[0.28,0.99,0]];verticalLabelPosition=bottom;align=center;verticalAlign=top;shape=mxgraph.kubernetes.icon;prIcon=api" vertex="1" parent="1">
          <mxGeometry x="890" y="-811" width="120" height="91" as="geometry" />
        </mxCell>
        <mxCell id="mvMGPAbySClWrUy9KK7t-93" value="Text" style="text;html=1;align=center;verticalAlign=middle;resizable=0;points=[];autosize=1;strokeColor=none;fillColor=none;" vertex="1" parent="1">
          <mxGeometry x="1035" y="-882" width="50" height="30" as="geometry" />
        </mxCell>
        <mxCell id="mvMGPAbySClWrUy9KK7t-94" value="lambda call to ask for team scores" style="text;html=1;align=center;verticalAlign=middle;resizable=0;points=[];autosize=1;strokeColor=none;fillColor=none;" vertex="1" parent="1">
          <mxGeometry x="920" y="-1061" width="210" height="30" as="geometry" />
        </mxCell>
        <mxCell id="mvMGPAbySClWrUy9KK7t-95" value="getting team scores from different api&lt;br&gt;" style="text;html=1;align=center;verticalAlign=middle;resizable=0;points=[];autosize=1;strokeColor=none;fillColor=none;" vertex="1" parent="1">
          <mxGeometry x="730" y="-358.5" width="220" height="30" as="geometry" />
        </mxCell>
        <mxCell id="mvMGPAbySClWrUy9KK7t-96" value="" style="outlineConnect=0;dashed=0;verticalLabelPosition=bottom;verticalAlign=top;align=center;html=1;shape=mxgraph.aws3.lambda;fillColor=#F58534;gradientColor=none;" vertex="1" parent="1">
          <mxGeometry x="-110" y="-1182" width="76.5" height="93" as="geometry" />
        </mxCell>
        <mxCell id="mvMGPAbySClWrUy9KK7t-97" value="" style="outlineConnect=0;dashed=0;verticalLabelPosition=bottom;verticalAlign=top;align=center;html=1;shape=mxgraph.aws3.lambda;fillColor=#F58534;gradientColor=none;" vertex="1" parent="1">
          <mxGeometry x="100" y="-1010" width="76.5" height="93" as="geometry" />
        </mxCell>
        <mxCell id="mvMGPAbySClWrUy9KK7t-100" value="api to send data for teams for a user" style="text;html=1;align=center;verticalAlign=middle;resizable=0;points=[];autosize=1;strokeColor=none;fillColor=none;" vertex="1" parent="1">
          <mxGeometry x="58.25" y="-1046" width="220" height="30" as="geometry" />
        </mxCell>
        <mxCell id="mvMGPAbySClWrUy9KK7t-101" value="api to send the team name associated" style="text;html=1;align=center;verticalAlign=middle;resizable=0;points=[];autosize=1;strokeColor=none;fillColor=none;" vertex="1" parent="1">
          <mxGeometry x="-170" y="-1220" width="230" height="30" as="geometry" />
        </mxCell>
      </root>
    </mxGraphModel>
  </diagram>
</mxfile>
